<svg width="1024" height="1024" viewBox="0 0 1024 1024" fill="none" xmlns="http://www.w3.org/2000/svg">
<path d="M819.749 624.253L777.668 594.272C754.524 578.282 758.732 562.292 762.94 554.297L781.875 540.306C811.332 518.32 830.269 486.341 830.269 450.363C830.269 414.386 813.436 382.406 781.875 360.42L306.363 22.6342C270.595 -3.3493 222.202 -7.34677 182.225 12.6406C142.249 32.6279 117 70.6039 117 112.577V788.149C117 830.123 142.249 870.098 182.225 888.086C199.058 896.081 217.994 900.078 234.826 900.078C260.075 900.078 285.323 892.084 306.363 878.092C306.363 878.092 331.612 866.1 331.612 900.078V934.057C331.612 968.035 350.548 998.016 382.109 1014.01C394.733 1020 409.461 1024 424.19 1024C443.126 1024 464.166 1018 478.895 1006.01L817.644 766.163C840.789 750.174 855.517 724.19 855.517 694.209C857.621 668.225 844.997 642.242 819.749 624.253ZM394.733 684.215V454.361C394.733 444.367 401.045 434.374 411.565 428.377C415.773 426.379 419.982 424.38 424.19 424.38C430.502 424.38 436.814 426.379 441.022 430.376L607.24 548.301C632.489 566.29 611.449 586.277 605.137 590.275L445.23 704.203C396.837 742.178 394.733 684.215 394.733 684.215ZM211.682 836.119C192.745 826.125 182.225 810.135 182.225 790.148V112.577C182.225 92.5899 192.745 74.6013 211.682 66.6064C220.098 62.6089 228.514 60.6102 236.93 60.6102C247.451 60.6102 260.074 64.6077 270.594 70.6039L746.108 408.39C760.836 418.384 767.148 434.374 767.148 450.363C767.148 466.353 758.732 482.343 746.108 492.337L720.859 510.325C695.611 530.313 664.05 514.323 653.529 506.328L649.321 502.33L480.998 384.405C451.542 364.418 415.774 360.42 384.213 376.41C352.652 392.4 333.716 422.381 333.716 456.36V726.189C333.716 786.151 304.259 806.138 304.259 806.138L270.594 830.123C253.762 842.115 230.618 844.114 211.682 836.119ZM781.875 718.194L443.126 958.042C434.71 964.038 422.085 966.037 411.565 960.041C401.045 956.043 394.733 946.049 394.733 934.057V856.106C394.733 850.11 396.837 814.133 430.501 790.148L653.529 632.248C659.842 628.251 691.402 608.263 727.171 632.248L781.875 672.223C790.291 678.219 794.5 686.214 794.5 694.209C794.5 704.203 790.291 712.198 781.875 718.194Z" fill="#22201F"/>
<path d="M870.949 624.253L828.868 594.272C805.724 578.282 809.932 562.292 814.14 554.297L833.075 540.306C862.532 518.32 881.469 486.341 881.469 450.363C881.469 414.386 864.636 382.406 833.075 360.42L357.563 22.6342C321.795 -3.3493 273.402 -7.34677 233.425 12.6406C193.449 32.6279 168.2 70.6039 168.2 112.577V788.149C168.2 830.123 193.449 870.098 233.425 888.086C250.258 896.081 269.194 900.078 286.026 900.078C311.275 900.078 336.523 892.084 357.563 878.092C357.563 878.092 382.812 866.1 382.812 900.078V934.057C382.812 968.035 401.748 998.016 433.309 1014.01C445.933 1020 460.661 1024 475.39 1024C494.326 1024 515.366 1018 530.095 1006.01L868.844 766.163C891.989 750.174 906.717 724.19 906.717 694.209C908.821 668.225 896.197 642.242 870.949 624.253ZM445.933 684.215V454.361C445.933 444.367 452.245 434.374 462.765 428.377C466.973 426.379 471.181 424.38 475.39 424.38C481.702 424.38 488.014 426.379 492.222 430.376L658.44 548.301C683.689 566.29 662.649 586.277 656.337 590.275L496.43 704.203C448.037 742.178 445.933 684.215 445.933 684.215ZM262.882 836.119C243.945 826.125 233.425 810.135 233.425 790.148V112.577C233.425 92.5899 243.945 74.6013 262.882 66.6064C271.298 62.6089 279.714 60.6102 288.13 60.6102C298.651 60.6102 311.274 64.6077 321.794 70.6039L797.308 408.39C812.036 418.384 818.348 434.374 818.348 450.363C818.348 466.353 809.932 482.343 797.308 492.337L772.059 510.325C746.811 530.313 715.25 514.323 704.729 506.328L700.521 502.33L532.198 384.405C502.742 364.418 466.974 360.42 435.413 376.41C403.852 392.4 384.916 422.381 384.916 456.36V726.189C384.916 786.151 355.459 806.138 355.459 806.138L321.794 830.123C304.962 842.115 281.818 844.114 262.882 836.119ZM833.075 718.194L494.326 958.042C485.91 964.038 473.285 966.037 462.765 960.041C452.245 956.043 445.933 946.049 445.933 934.057V856.106C445.933 850.11 448.037 814.133 481.701 790.148L704.729 632.248C711.042 628.251 742.602 608.263 778.371 632.248L833.075 672.223C841.491 678.219 845.7 686.214 845.7 694.209C845.7 704.203 841.491 712.198 833.075 718.194Z" fill="#EFCA47"/>
</svg>
