<svg width="871" height="260" viewBox="0 0 871 260" fill="none" xmlns="http://www.w3.org/2000/svg">
    <!-- to activate <style>, add class="dark-or-light" to each path -->
    <style>
        .dark-or-light {
            fill: black;
        }

        @media (prefers-color-scheme: dark) {
            .dark-or-light {
                fill: white;
            }
        }
    </style>

    <path
        d="M426.608 129.927C426.608 112.192 426.637 94.4572 426.564 76.7369C426.55 74.6883 427.104 74.0445 429.177 74.0884C442.707 74.3518 456.237 74.2786 469.753 74.7469C478.014 75.0395 486.085 76.8101 493.631 80.3805C507.263 86.8336 516.386 97.3253 520.662 111.826C524.311 124.206 524.53 136.775 521.1 149.228C515.773 168.528 502.958 180.074 483.56 183.981C476.948 185.312 470.059 185.561 463.287 185.707C451.829 185.971 440.372 185.737 428.914 185.824C426.929 185.839 426.55 185.151 426.564 183.351C426.637 165.529 426.608 147.735 426.608 129.927ZM448.866 174.425C449.158 174.528 449.348 174.645 449.552 174.645C456.558 174.484 463.593 174.601 470.585 174.074C483.443 173.109 491.763 165.953 496.215 154.027C499.615 144.882 499.907 135.356 499.294 125.786C498.725 117.036 496.755 108.607 492.04 101.057C488.172 94.867 483.035 90.0528 476.014 87.7115C467.213 84.785 458.105 85.3117 448.881 85.4288C448.866 115.207 448.866 144.823 448.866 174.425Z"
        fill="#22201F" />
    <path
        d="M645.63 132.561C659.32 142.906 665.976 158.417 672.967 173.694C674.689 177.454 676.207 181.318 677.959 185.459C676.908 185.576 676.178 185.737 675.434 185.737C670.34 185.751 665.261 185.663 660.181 185.795C658.386 185.839 657.642 185.327 657.102 183.527C653.409 171.279 648.198 159.749 640.069 149.755C635.135 143.697 629.356 138.751 621.488 136.951C619.635 136.527 617.708 136.424 615.504 136.117C615.504 137.317 615.504 138.151 615.504 138.985C615.504 153.705 615.461 168.441 615.548 183.161C615.563 185.239 614.993 185.854 612.906 185.795C607.112 185.663 601.303 185.693 595.494 185.781C593.903 185.81 593.407 185.312 593.407 183.703C593.45 147.867 593.45 112.017 593.407 76.1809C593.407 74.7322 593.771 74.1615 595.333 74.1762C607.579 74.3664 619.825 74.3225 632.07 74.6737C639.208 74.8786 646.097 76.5321 652.533 79.7952C671.654 89.4528 671.639 113.436 657.904 124.572C654.183 127.615 649.819 129.883 645.63 132.561ZM615.636 85.9409C615.592 86.8335 615.519 87.5213 615.519 88.2237C615.504 91.8819 615.519 95.5547 615.519 99.2129C615.519 107.261 615.504 115.294 615.534 123.342C615.534 124.191 615.154 125.332 616.672 125.406C622.729 125.684 628.743 125.42 634.333 122.757C637.427 121.294 640.112 119.07 641.47 115.865C644.856 107.89 644.681 99.9738 640.507 92.2477C639.353 90.1113 637.587 88.7504 635.325 88.0042C628.947 85.897 622.364 86.1458 615.636 85.9409Z"
        fill="#22201F" />
    <path
        d="M859.061 145.54C859.061 144.106 859.061 143.345 859.061 142.584C859.061 120.826 859.061 99.0665 859.061 77.2929C859.061 74.2201 859.061 74.2201 862.228 74.2201C864.169 74.2201 866.096 74.2201 868.037 74.2201C870.767 74.2201 870.766 74.2201 870.766 77.0735C870.766 88.9992 870.766 100.925 870.766 112.836C870.766 136.248 870.737 159.661 870.825 183.073C870.84 185.298 870.153 185.634 868.066 185.854C863.877 186.307 861.44 184.683 858.93 181.332C838.364 153.896 817.595 126.62 796.884 99.3007C796.504 98.8032 796.095 98.3203 795.205 97.8813C795.205 98.6715 795.205 99.4616 795.205 100.266C795.205 127.63 795.205 154.993 795.205 182.356C795.205 185.459 795.205 185.459 792.184 185.459C789.396 185.459 786.594 185.385 783.806 185.488C782.2 185.546 781.719 184.946 781.719 183.366C781.777 173.884 781.748 164.402 781.748 154.92C781.748 128.917 781.777 102.915 781.704 76.9271C781.704 74.7761 782.215 74.103 784.434 74.1469C790.812 74.3079 797.19 74.2493 803.554 74.1615C805.072 74.1469 806.006 74.5712 806.925 75.815C823.71 98.3788 840.554 120.899 857.382 143.419C857.776 143.989 858.214 144.501 859.061 145.54Z"
        fill="#22201F" />
    <path
        d="M718.972 85.1508C718.972 97.3838 718.972 109.353 718.972 121.616C719.702 121.645 720.446 121.718 721.205 121.718C729.583 121.733 737.961 121.762 746.339 121.689C748.076 121.674 748.82 122.128 748.674 123.986C748.528 125.918 748.645 127.864 748.645 129.795C748.645 132.766 748.645 132.766 745.784 132.766C737.698 132.766 729.598 132.766 721.512 132.766C720.738 132.766 719.965 132.766 719.016 132.766C719.016 146.755 719.016 160.568 719.016 174.689C719.848 174.689 720.68 174.689 721.512 174.689C734.911 174.689 748.295 174.718 761.694 174.645C763.547 174.63 764.277 175.099 764.131 177.045C763.97 179.181 763.985 181.361 764.131 183.498C764.248 185.254 763.547 185.707 761.898 185.693C750.937 185.634 739.975 185.663 729.029 185.663C718.928 185.663 708.828 185.62 698.728 185.707C696.816 185.722 696.305 185.107 696.305 183.234C696.349 147.618 696.349 112.002 696.305 76.3857C696.305 74.5859 696.831 74.0737 698.611 74.0737C719.804 74.1323 741.012 74.1176 762.204 74.0737C763.854 74.0737 764.54 74.5127 764.438 76.254C764.321 78.405 764.306 80.5707 764.438 82.7071C764.554 84.5947 763.927 85.18 762.015 85.18C748.616 85.1069 735.232 85.1361 721.833 85.1361C720.928 85.1508 720.023 85.1508 718.972 85.1508Z"
        fill="#22201F" />
    <path
        d="M258 74.3778C265.794 74.3778 273.282 74.3778 281.134 74.3778C292.84 101.229 304.604 128.227 316.514 155.561C316.908 154.77 317.229 154.2 317.462 153.6C327.811 128.022 338.159 102.444 348.434 76.8215C349.208 74.9046 349.981 73.9974 352.214 74.1584C355.455 74.4071 358.739 74.2169 362.373 74.2169C362.008 75.2851 361.818 75.9436 361.556 76.5728C346.508 112.321 331.445 148.069 316.441 183.831C315.813 185.324 315.098 185.953 313.463 185.807C311.683 185.646 309.873 185.646 308.092 185.807C306.516 185.953 305.874 185.251 305.275 183.89C292.358 154.024 279.383 124.173 266.407 94.3224C263.867 88.4692 261.313 82.6161 258.788 76.763C258.496 76.0752 258.307 75.329 258 74.3778Z"
        fill="#22201F" />
    <path
        d="M545.081 130.015C545.081 112.28 545.11 94.5451 545.037 76.8101C545.022 74.7469 545.606 74.1323 547.679 74.1762C553.473 74.3079 559.282 74.2787 565.076 74.1909C566.77 74.1616 567.47 74.5567 567.47 76.4297C567.426 112.119 567.426 147.794 567.47 183.483C567.47 185.268 566.945 185.839 565.149 185.81C559.209 185.707 553.254 185.707 547.314 185.81C545.445 185.839 545.051 185.137 545.051 183.439C545.095 165.631 545.081 147.823 545.081 130.015Z"
        fill="#22201F" />
    <path
        d="M377.728 129.795C377.728 112.06 377.757 94.3255 377.684 76.5759C377.669 74.659 378.224 74.1469 380.092 74.1908C385.959 74.3078 391.841 74.2932 397.709 74.2054C399.417 74.1761 400.059 74.5859 400.059 76.4442C400 112.134 400 147.823 400.059 183.512C400.059 185.312 399.519 185.839 397.753 185.81C391.885 185.707 386.003 185.678 380.136 185.824C378.034 185.883 377.669 185.122 377.684 183.234C377.742 165.426 377.728 147.604 377.728 129.795Z"
        fill="#22201F" />
    <path
        d="M178.432 158.502L167.748 150.889C161.871 146.829 162.94 142.77 164.008 140.74L168.816 137.187C176.295 131.605 181.104 123.485 181.104 114.35C181.104 105.215 176.829 97.0954 168.816 91.513L48.0805 5.74698C38.9987 -0.850408 26.7114 -1.86539 16.5611 3.20952C6.41077 8.28443 0 17.9268 0 28.5841V200.116C0 210.773 6.41077 220.923 16.5611 225.491C20.8349 227.521 25.643 228.536 29.9168 228.536C36.3276 228.536 42.7383 226.506 48.0805 222.953C48.0805 222.953 54.4913 219.908 54.4913 228.536V237.163C54.4913 245.79 59.2994 253.403 67.3128 257.463C70.5182 258.985 74.2578 260 77.9974 260C82.8054 260 88.1477 258.478 91.8873 255.433L177.898 194.534C183.774 190.474 187.514 183.876 187.514 176.264C188.048 169.667 184.843 163.069 178.432 158.502ZM70.5182 173.727V115.365C70.5182 112.828 72.1208 110.29 74.792 108.768C75.8604 108.26 76.9289 107.753 77.9974 107.753C79.6 107.753 81.2027 108.26 82.2711 109.275L124.475 139.217C130.886 143.785 125.544 148.859 123.941 149.874L83.3396 178.801C71.0524 188.444 70.5182 173.727 70.5182 173.727ZM24.0403 212.296C19.2322 209.758 16.5611 205.698 16.5611 200.624V28.5841C16.5611 23.5092 19.2322 18.9417 24.0403 16.9118C26.1772 15.8968 28.3142 15.3893 30.4511 15.3893C33.1222 15.3893 36.3275 16.4043 38.9986 17.9268L159.734 103.693C163.474 106.23 165.077 110.29 165.077 114.35C165.077 118.41 162.94 122.47 159.734 125.007L153.324 129.575C146.913 134.65 138.899 130.59 136.228 128.56L135.16 127.545L92.4214 97.6029C84.9422 92.5279 75.8605 91.513 67.8471 95.5729C59.8336 99.6329 55.0254 107.245 55.0254 115.873V184.384C55.0254 199.609 47.5463 204.684 47.5463 204.684L38.9986 210.773C34.7248 213.818 28.8483 214.326 24.0403 212.296ZM168.816 182.354L82.8054 243.253C80.6685 244.775 77.4631 245.283 74.792 243.76C72.1208 242.745 70.5182 240.208 70.5182 237.163V217.371C70.5182 215.848 71.0523 206.713 79.6 200.624L136.228 160.532C137.831 159.517 145.844 154.442 154.926 160.532L168.816 170.682C170.953 172.204 172.022 174.234 172.022 176.264C172.022 178.801 170.953 180.831 168.816 182.354Z"
        fill="#22201F" />
    <path
        d="M191.432 158.502L180.748 150.889C174.871 146.829 175.94 142.77 177.008 140.74L181.816 137.187C189.295 131.605 194.104 123.485 194.104 114.35C194.104 105.215 189.829 97.0954 181.816 91.513L61.0805 5.74698C51.9987 -0.850408 39.7114 -1.86539 29.5611 3.20952C19.4108 8.28443 13 17.9268 13 28.5841V200.116C13 210.773 19.4108 220.923 29.5611 225.491C33.8349 227.521 38.643 228.536 42.9168 228.536C49.3276 228.536 55.7383 226.506 61.0805 222.953C61.0805 222.953 67.4913 219.908 67.4913 228.536V237.163C67.4913 245.79 72.2994 253.403 80.3128 257.463C83.5182 258.985 87.2578 260 90.9974 260C95.8054 260 101.148 258.478 104.887 255.433L190.898 194.534C196.774 190.474 200.514 183.876 200.514 176.264C201.048 169.667 197.843 163.069 191.432 158.502ZM83.5182 173.727V115.365C83.5182 112.828 85.1208 110.29 87.792 108.768C88.8604 108.26 89.9289 107.753 90.9974 107.753C92.6 107.753 94.2027 108.26 95.2711 109.275L137.475 139.217C143.886 143.785 138.544 148.859 136.941 149.874L96.3396 178.801C84.0524 188.444 83.5182 173.727 83.5182 173.727ZM37.0403 212.296C32.2322 209.758 29.5611 205.698 29.5611 200.624V28.5841C29.5611 23.5092 32.2322 18.9417 37.0403 16.9118C39.1772 15.8968 41.3142 15.3893 43.4511 15.3893C46.1222 15.3893 49.3275 16.4043 51.9986 17.9268L172.734 103.693C176.474 106.23 178.077 110.29 178.077 114.35C178.077 118.41 175.94 122.47 172.734 125.007L166.324 129.575C159.913 134.65 151.899 130.59 149.228 128.56L148.16 127.545L105.421 97.6029C97.9422 92.5279 88.8605 91.513 80.8471 95.5729C72.8336 99.6329 68.0254 107.245 68.0254 115.873V184.384C68.0254 199.609 60.5463 204.684 60.5463 204.684L51.9986 210.773C47.7248 213.818 41.8483 214.326 37.0403 212.296ZM181.816 182.354L95.8054 243.253C93.6685 244.775 90.4631 245.283 87.792 243.76C85.1208 242.745 83.5182 240.208 83.5182 237.163V217.371C83.5182 215.848 84.0523 206.713 92.6 200.624L149.228 160.532C150.831 159.517 158.844 154.442 167.926 160.532L181.816 170.682C183.953 172.204 185.022 174.234 185.022 176.264C185.022 178.801 183.953 180.831 181.816 182.354Z"
        fill="#EFCA47" />
</svg>